<svg width="17" height="20" xmlns="http://www.w3.org/2000/svg">
  <g fill="#0EA260" fill-rule="evenodd">
    <path d="M15.409 13.178c-2.485 2.444-4.751 4.133-6.953 5.133-2.2-1.022-4.468-2.711-6.952-5.133V2.644C2.986 2.2 5.667 1.556 8.456 1.556c2.79 0 5.47.644 6.953 1.088v10.534zm.654-11.956C14.646.8 11.638 0 8.456 0 5.274 0 2.266.8.85 1.222.349 1.378 0 1.844 0 2.4v10.867c0 .355.153.689.392.955C2.572 16.4 5.34 18.712 8.456 20c3.117-1.289 5.885-3.6 8.065-5.778.24-.244.392-.578.392-.955V2.4c0-.533-.349-1.022-.85-1.178z"/>
    <path d="M7.824 12.978L4.621 9.756l1.002-1.023 2.07 2.09 3.924-5 1.111.888z"/>
  </g>
</svg>
